<svg width="110" height="91" viewBox="0 0 110 91" fill="none" xmlns="http://www.w3.org/2000/svg">
<path fill-rule="evenodd" clip-rule="evenodd" d="M70.0001 30.0044V40.0044H80.0001V30.0044H70.0001ZM30.0001 30.0044V40.0044H40.0001V30.0044H30.0001ZM80.0001 10.0044V0.00439453H90.0001V10.0044H80.0001ZM30.0001 10.0044H40.0001V20.0044H70.0001V10.0044H80.0001V20.0044H90.0001V30.0044H100V40.0044H110V70.0044H100V50.0044H90.0001V90.0044H81.0001V60.0044H30.0001C30.0001 60.0044 30.0001 86.0992 30.0001 90.0044C26.0949 90.0044 20.0001 90.0044 20.0001 90.0044V50.0044H10.0001V70.0044H0.00012207V40.0044H10.0001V30.0044H20.0001V20.0044H30.0001V10.0044ZM20.0001 0.00439453H30.0001V10.0044H20.0001V0.00439453Z" fill="#03FF00"/>
</svg>
